<svg width="15" height="15" viewBox="0 0 15 15" fill="none" xmlns="http://www.w3.org/2000/svg">
<path d="M7.25 10.33C8.12863 10.33 8.84091 9.7032 8.84091 8.93C8.84091 8.1568 8.12863 7.53 7.25 7.53C6.37137 7.53 5.65909 8.1568 5.65909 8.93C5.65909 9.7032 6.37137 10.33 7.25 10.33ZM7.25 10.33V12.01M4.38636 5.29V2.77C4.38636 2.10165 4.68807 1.46068 5.2251 0.988091C5.76214 0.515499 6.49052 0.25 7.25 0.25C8.00948 0.25 8.73786 0.515499 9.2749 0.988091C9.81193 1.46068 10.1136 2.10165 10.1136 2.77V5.29M0.886364 5.29H13.6136C13.9651 5.29 14.25 5.54072 14.25 5.85V13.69C14.25 13.9993 13.9651 14.25 13.6136 14.25H0.886364C0.53491 14.25 0.25 13.9993 0.25 13.69V5.85C0.25 5.54072 0.53491 5.29 0.886364 5.29Z" stroke="black" stroke-width="0.5" stroke-linecap="round" stroke-linejoin="round"/>
</svg>
